<svg width="16" height="18" viewBox="0 0 16 18" fill="none" xmlns="http://www.w3.org/2000/svg">
<path d="M2.17071 2C2.58254 0.834808 3.69378 0 5 0C6.30622 0 7.41746 0.834808 7.82929 2H16V4H7.82929C7.41746 5.16519 6.30622 6 5 6C3.69378 6 2.58254 5.16519 2.17071 4H0V2H2.17071ZM2.17071 14C2.58254 12.8348 3.69378 12 5 12C6.30622 12 7.41746 12.8348 7.82929 14H16V16H7.82929C7.41746 17.1652 6.30622 18 5 18C3.69378 18 2.58254 17.1652 2.17071 16H0V14H2.17071ZM8.17071 8C8.58254 6.83481 9.69378 6 11 6C12.3062 6 13.4175 6.83481 13.8293 8H16V10H13.8293C13.4175 11.1652 12.3062 12 11 12C9.69378 12 8.58254 11.1652 8.17071 10H0V8H8.17071ZM11 10C11.5523 10 12 9.55228 12 9C12 8.44772 11.5523 8 11 8C10.4477 8 10 8.44772 10 9C10 9.55228 10.4477 10 11 10ZM5 16C5.55228 16 6 15.5523 6 15C6 14.4477 5.55228 14 5 14C4.44772 14 4 14.4477 4 15C4 15.5523 4.44772 16 5 16ZM5 4C5.55228 4 6 3.55228 6 3C6 2.44772 5.55228 2 5 2C4.44772 2 4 2.44772 4 3C4 3.55228 4.44772 4 5 4Z" fill="#8D8D8D"/>
</svg>
